<svg id="Capa_1" enable-background="new 0 0 509.5 509.5" height="512" viewBox="0 0 509.5 509.5" width="512" xmlns="http://www.w3.org/2000/svg"><g id="XMLID_439_"><path id="XMLID_1375_" d="m390.915 248.974c0 1.93-.064 3.855-.179 5.776h50.698c.167-1.916.257-3.843.257-5.776 0-36.27-29.507-65.777-65.776-65.777-3.512 0-7.006.284-10.447.836 15.786 17.082 25.447 39.903 25.447 64.941z"/><path id="XMLID_1376_" d="m310.139 248.974c0 1.93-.064 3.856-.179 5.776h50.698c.167-1.917.258-3.843.258-5.776 0-36.27-29.507-65.777-65.776-65.777-3.512 0-7.006.284-10.448.835 15.785 17.083 25.447 39.903 25.447 64.942z"/><path id="XMLID_1377_" d="m229.362 248.974c0 1.93-.064 3.856-.179 5.776h50.698c.167-1.916.258-3.843.258-5.776 0-36.27-29.507-65.777-65.777-65.777-3.512 0-7.006.284-10.447.836 15.785 17.082 25.447 39.903 25.447 64.941z"/><path id="XMLID_1378_" d="m199.104 254.75c.167-1.916.258-3.843.258-5.776 0-36.27-29.507-65.777-65.776-65.777-36.27 0-65.777 29.507-65.777 65.777 0 2.252.026 4.114.109 5.776z"/><path id="XMLID_1382_" d="m352.739 0v97.667h133.564v-97.667zm69.011 64.75c-8.409 0-14.636-6.873-15-15-.363-8.101 7.154-15 15-15 8.409 0 14.636 6.873 15 15 .363 8.101-7.154 15-15 15z"/><path id="XMLID_1383_" d="m322.739 127.667h-299.542v127.083h14.7c-.063-1.812-.088-3.713-.088-5.776 0-52.812 42.965-95.777 95.777-95.777 14.415 0 28.094 3.207 40.368 8.936 12.596-5.859 26.406-8.936 40.408-8.936 14.416 0 28.095 3.208 40.37 8.937 12.596-5.858 26.409-8.937 40.407-8.937 14.415 0 28.094 3.207 40.368 8.936 12.597-5.859 26.407-8.936 40.408-8.936 52.812 0 95.776 42.965 95.776 95.777 0 1.93-.064 3.856-.179 5.776h14.79v-127.083z"/><path id="XMLID_1386_" d="m322.739 97.667v-97.667h-299.542v97.667zm-203.989-32.917c-8.409 0-14.636-6.873-15-15-.363-8.101 7.154-15 15-15 8.409 0 14.636 6.873 15 15 .363 8.101-7.154 15-15 15zm60 0c-8.409 0-14.636-6.873-15-15-.363-8.101 7.154-15 15-15 8.409 0 14.636 6.873 15 15 .363 8.101-7.154 15-15 15zm60 0c-8.409 0-14.636-6.873-15-15-.363-8.101 7.154-15 15-15 8.409 0 14.636 6.873 15 15 .363 8.101-7.154 15-15 15z"/><path id="XMLID_1391_" d="m23.197 349.75v159.75h463.106v-159.75zm193.538 47h78.5v30h-78.5z"/><path id="XMLID_1392_" d="m23.197 284.75h463.106v35h-463.106z"/></g></svg>