<?xml version="1.0" encoding="iso-8859-1"?>
<!-- Generator: Adobe Illustrator 19.0.0, SVG Export Plug-In . SVG Version: 6.00 Build 0)  -->
<svg version="1.1" id="Capa_1" xmlns="http://www.w3.org/2000/svg" xmlns:xlink="http://www.w3.org/1999/xlink" x="0px" y="0px"
	 viewBox="0 0 512 512" style="enable-background:new 0 0 512 512;" xml:space="preserve">
<g>
	<g>
		<path d="M406,0H106c-8.284,0-15,6.716-15,15v175h330V15C421,6.716,414.284,0,406,0z M182,135c0,8.284-6.716,15-15,15
			s-15-6.716-15-15V55c0-8.284,6.716-15,15-15s15,6.716,15,15V135z"/>
	</g>
</g>
<g>
	<g>
		<path d="M91,220v277c0,8.284,6.716,15,15,15h300c8.284,0,15-6.716,15-15V220H91z M182,355c0,8.284-6.716,15-15,15s-15-6.716-15-15
			v-80c0-8.284,6.716-15,15-15s15,6.716,15,15V355z"/>
	</g>
</g>
<g>
</g>
<g>
</g>
<g>
</g>
<g>
</g>
<g>
</g>
<g>
</g>
<g>
</g>
<g>
</g>
<g>
</g>
<g>
</g>
<g>
</g>
<g>
</g>
<g>
</g>
<g>
</g>
<g>
</g>
</svg>
