<?xml version="1.0" encoding="iso-8859-1"?>
<!-- Generator: Adobe Illustrator 19.0.0, SVG Export Plug-In . SVG Version: 6.00 Build 0)  -->
<svg version="1.1" id="Layer_1" xmlns="http://www.w3.org/2000/svg" xmlns:xlink="http://www.w3.org/1999/xlink" x="0px" y="0px"
	 viewBox="0 0 512 512" style="enable-background:new 0 0 512 512;" xml:space="preserve">
<g>
	<g>
		<path d="M456.271,0H55.729C39.754,0,26.353,13.291,26.353,29.264v68.618h459.294V29.264C485.647,13.291,472.246,0,456.271,0z
			 M170.667,69.02H87.843c-6.93,0-12.549-5.618-12.549-12.549c0-6.931,5.619-12.549,12.549-12.549h82.824
			c6.93,0,12.549,5.618,12.549,12.549C183.216,63.401,177.596,69.02,170.667,69.02z M356.162,77.47
			c-12.031,0-21.784-9.753-21.784-21.784s9.753-21.784,21.784-21.784c12.031,0,21.784,9.753,21.784,21.784
			C377.946,67.718,368.193,77.47,356.162,77.47z M416.951,77.47c-12.031,0-21.783-9.753-21.783-21.784s9.752-21.784,21.783-21.784
			s21.784,9.753,21.784,21.784C438.734,67.718,428.982,77.47,416.951,77.47z"/>
	</g>
</g>
<g>
	<g>
		<path d="M26.353,122.98v359.755c0,15.974,13.401,29.264,29.376,29.264h400.543c15.974,0,29.375-13.291,29.375-29.264V122.98
			H26.353z M415.373,335.06c0,6.931-5.619,12.549-12.549,12.549c-2.418,0-4.67-0.696-6.586-1.882
			C380.7,409.109,323.415,456.28,255.31,456.28c-80.005,0-145.094-65.089-145.094-145.094S175.304,166.09,255.309,166.09
			c68.125,0,125.424,47.197,140.942,110.608c1.914-1.181,4.159-1.874,6.573-1.874c6.93,0,12.549,5.618,12.549,12.549V335.06z"/>
	</g>
</g>
<g>
	<g>
		<path d="M255.309,191.187c-66.166,0-119.996,53.83-119.996,119.997c0,66.166,53.83,119.996,119.996,119.996
			c66.167,0,119.996-53.83,119.996-119.996C375.305,245.017,321.475,191.187,255.309,191.187z M255.309,388.1
			c-42.412,0-76.915-34.505-76.915-76.915s34.503-76.917,76.915-76.917c42.412,0,76.917,34.505,76.917,76.917
			S297.72,388.1,255.309,388.1z"/>
	</g>
</g>
<g>
</g>
<g>
</g>
<g>
</g>
<g>
</g>
<g>
</g>
<g>
</g>
<g>
</g>
<g>
</g>
<g>
</g>
<g>
</g>
<g>
</g>
<g>
</g>
<g>
</g>
<g>
</g>
<g>
</g>
</svg>
