<svg id="Capa_1" enable-background="new 0 0 493 493" height="512" viewBox="0 0 493 493" width="512" xmlns="http://www.w3.org/2000/svg"><path d="m211.23 493h-168.14c-8.73 0-15.808-7.078-15.808-15.808v-47.212c0-44.183 35.817-80 80-80h39.757c44.183 0 80 35.817 80 80v47.212c-.001 8.73-7.078 15.808-15.809 15.808z" fill="#fd5426"/><path d="m173.038 349.98h-30c44.183 0 80 35.817 80 80v47.212c0 8.73-7.077 15.808-15.808 15.808h30c8.731 0 15.808-7.078 15.808-15.808v-47.212c0-44.183-35.817-80-80-80z" fill="#ef4424"/><path d="m394.752 0c-52.116 0-94.365 42.249-94.365 94.365 0 19.132 5.699 36.931 15.485 51.801l-15.131 30.758c-2.005 7.484 4.843 14.332 12.327 12.327l31.025-15.262c14.636 9.331 32.015 14.74 50.659 14.74 52.116 0 94.365-42.248 94.365-94.364s-42.249-94.365-94.365-94.365z" fill="#b6c4cf"/><path d="m394.752 0c-5.105 0-10.114.411-15 1.191 44.986 7.187 79.365 46.163 79.365 93.173 0 47.001-34.364 85.97-79.337 93.168 4.878.778 9.875 1.196 14.972 1.196 52.116 0 94.365-42.249 94.365-94.364s-42.249-94.364-94.365-94.364z" fill="#9facba"/><ellipse cx="245.845" cy="216.766" fill="#fed2a4" rx="31.117" ry="31.117" transform="matrix(.707 -.707 .707 .707 -81.27 237.328)"/><path d="m179.565 99.604h-81.62c-33.804 0-61.273 27.282-61.504 61.085l-.171 24.992c-.421-.017-.844-.032-1.269-.032-17.186 0-31.118 13.932-31.118 31.117 0 17.186 13.932 31.118 31.118 31.118.891 0 1.771-.046 2.643-.12 7.503 41.09 39.547 73.609 80.389 81.812v30.645c0 11.88 9.631 21.511 21.51 21.511h1.143c11.88 0 21.51-9.631 21.51-21.511v-31.452c44.974-10.767 65.409-51.227 65.409-99.501l.463-67.739c.234-34.132-14.371-61.925-48.503-61.925z" fill="#fed2a4"/><path d="m179.565 99.604h-30c34.133 0 61.737 27.794 61.504 61.925l-.463 67.739c0 51.412-37.921 93.961-87.317 101.219 4.896.72 9.904 1.098 15 1.098 56.508 0 102.317-45.809 102.317-102.316l.463-67.739c.233-34.133-27.372-61.926-61.504-61.926z" fill="#ffbd86"/><path d="m89.937 250.196c-4.142 0-7.5-3.358-7.5-7.5v-7.329c0-4.142 3.358-7.5 7.5-7.5s7.5 3.358 7.5 7.5v7.329c0 4.142-3.358 7.5-7.5 7.5z" fill="#384949"/><path d="m182.428 250.196c-4.142 0-7.5-3.358-7.5-7.5v-7.329c0-4.142 3.358-7.5 7.5-7.5s7.5 3.358 7.5 7.5v7.329c0 4.142-3.358 7.5-7.5 7.5z" fill="#384949"/><path d="m138.513 287.705c-7.488 0-14.406-4.066-18.055-10.611-2.017-3.618-.718-8.186 2.9-10.203s8.186-.719 10.203 2.9c1.002 1.797 2.899 2.914 4.952 2.914 2.059 0 3.959-1.121 4.959-2.926 2.007-3.623 6.572-4.933 10.195-2.926s4.933 6.572 2.926 10.195c-3.642 6.574-10.57 10.657-18.08 10.657z" fill="#ffbd86"/><path d="m75.368 204.32c-2.473 0-4.895-1.223-6.326-3.461-2.231-3.49-1.21-8.128 2.28-10.359 8.509-5.439 19.115-6.297 28.376-2.296 3.802 1.643 5.553 6.057 3.91 9.859-1.643 3.801-6.056 5.553-9.859 3.91-4.68-2.022-10.044-1.585-14.348 1.166-1.251.8-2.65 1.181-4.033 1.181z" fill="#c86d36"/><path d="m198.351 204.32c-1.383 0-2.781-.382-4.033-1.182-4.304-2.751-9.669-3.188-14.347-1.166-3.804 1.646-8.216-.108-9.859-3.91-1.643-3.803.108-8.217 3.91-9.859 9.26-4.001 19.867-3.143 28.375 2.296 3.49 2.231 4.511 6.869 2.28 10.359-1.431 2.24-3.852 3.462-6.326 3.462z" fill="#c86d36"/><path d="m172.945 51.833h-68.666c-37.541 0-67.973 30.433-67.973 67.973v40.07l72.275-7.252c19.971-2.004 40.091-2.004 60.062 0l72.275 7.252v-40.07c0-37.54-30.432-67.973-67.973-67.973z" fill="#fd5426"/><path d="m78.581 152.624-42.275 4.242v3.01l72.275-7.252c5.002-.502 10.014-.878 15.031-1.128-15.01-.749-30.063-.373-45.031 1.128z" fill="#ef4424"/><path d="m172.945 51.833h-30c37.541 0 67.973 30.433 67.973 67.973v37.06l30 3.01v-40.07c0-37.54-30.432-67.973-67.973-67.973z" fill="#ef4424"/><path d="m107.135 135.187-61.988 5.934c-7.817.748-13.768 7.024-13.768 14.519 0 8.635 7.816 15.381 16.822 14.519l58.934-5.642c20.932-2.004 42.022-2.004 62.954 0l58.934 5.642c9.006.862 16.822-5.884 16.822-14.519 0-7.495-5.951-13.771-13.768-14.519l-61.988-5.934c-20.932-2.004-42.022-2.004-62.954 0z" fill="#fd6930"/><path d="m232.077 141.121-61.988-5.934c-15.449-1.479-30.983-1.858-46.477-1.154 5.499.249 10.994.629 16.477 1.154l61.988 5.934c7.817.748 13.768 7.024 13.768 14.52 0 5.371-3.026 10.008-7.479 12.541l20.658 1.978c9.006.862 16.822-5.884 16.822-14.519-.001-7.496-5.952-13.772-13.769-14.52z" fill="#fd5426"/><path d="m202.756 435.509h-26c-4.395 0-7.957-3.563-7.957-7.957v-10.275c0-4.395 3.563-7.957 7.957-7.957h26c4.395 0 7.957 3.563 7.957 7.957v10.275c0 4.395-3.562 7.957-7.957 7.957z" fill="#fff3ef"/><path d="m98.533 493v-19.171c0-4.142-3.358-7.5-7.5-7.5s-7.5 3.358-7.5 7.5v19.171z" fill="#d73d24"/><path d="m194.533 493v-19.171c0-4.142-3.358-7.5-7.5-7.5s-7.5 3.358-7.5 7.5v19.171z" fill="#d73d24"/><path d="m446.981 114.343-8.317-2.877c3.329-9.957 3.034-20.268-.157-29.503l8.311-2.868c2.368-.817 3.563-3.479 2.568-5.778-6.048-13.971-17.074-24.918-31.079-30.856-2.297-.974-4.941.225-5.752 2.585l-2.857 8.313c-9.956-3.335-20.266-3.046-29.503.14l-2.865-8.318c-.811-2.356-3.455-3.566-5.743-2.579-13.996 6.04-24.964 17.07-30.913 31.09-.977 2.303.232 4.954 2.601 5.757l8.306 2.817c-3.35 9.963-3.068 20.283.115 29.529l-8.319 2.86c-2.366.814-3.563 3.469-2.577 5.769 6.014 14.018 16.949 25.228 30.918 31.235 2.336 1.004 5.032-.162 5.842-2.572l2.825-8.4.028-.083.057-.169c9.954 3.347 20.264 3.068 29.504-.107l2.855 8.321c.809 2.357 3.451 3.57 5.741 2.586 14.034-6.037 25.029-17.087 30.985-31.141.975-2.296-.219-4.937-2.574-5.751zm-57.498-.734c-9.211-3.103-14.18-13.122-11.077-22.333 3.104-9.211 13.122-14.18 22.333-11.077 9.211 3.104 14.18 13.122 11.077 22.334-3.103 9.211-13.121 14.18-22.333 11.076z" fill="#26a6fe"/><path d="m446.981 114.343-8.317-2.876c3.33-9.958 3.035-20.268-.157-29.503l8.311-2.868c2.368-.817 3.563-3.479 2.568-5.778-6.048-13.971-17.074-24.918-31.079-30.856-2.297-.974-4.941.225-5.752 2.584l-2.857 8.313c-3.644-1.221-7.336-1.951-11.005-2.236 10.753 11.236 17.371 26.461 17.371 43.242 0 19.515-8.937 36.94-22.939 48.415 5.791.246 11.501-.614 16.851-2.453l2.855 8.321c.809 2.357 3.451 3.57 5.741 2.585 14.034-6.037 25.029-17.087 30.985-31.141.973-2.294-.221-4.935-2.576-5.749z" fill="#0593fc"/></svg>